<svg id="svg" version="1.1" xmlns="http://www.w3.org/2000/svg" xmlns:xlink="http://www.w3.org/1999/xlink" width="400" height="400" viewBox="0, 0, 400,400"><g id="svgg"><path id="path0" d="M167.114 48.993 L 167.114 54.362 199.329 54.362 L 231.544 54.362 231.544 48.993 L 231.544 43.624 199.329 43.624 L 167.114 43.624 167.114 48.993 M307.047 44.271 C 289.814 50.919,293.654 75.823,311.913 75.830 C 330.483 75.838,334.506 50.060,316.843 44.233 C 314.390 43.424,309.190 43.444,307.047 44.271 M75.839 59.732 L 75.839 65.101 81.208 65.101 L 86.577 65.101 86.577 59.732 L 86.577 54.362 81.208 54.362 L 75.839 54.362 75.839 59.732 M177.852 102.685 L 177.852 140.268 199.329 140.268 L 220.805 140.268 220.805 102.685 L 220.805 65.101 199.329 65.101 L 177.852 65.101 177.852 102.685 M69.388 76.298 C 69.135 76.551,68.633 76.856,68.273 76.978 C 65.283 77.985,65.040 79.211,65.164 92.644 L 65.268 103.912 66.212 105.149 C 67.847 107.291,69.924 108.083,73.750 108.021 C 76.883 107.971,79.714 107.478,77.349 107.394 L 76.342 107.359 77.181 106.879 C 77.995 106.414,77.986 106.348,77.097 106.242 C 76.867 106.214,76.712 105.893,76.753 105.529 C 76.795 105.164,76.654 104.035,76.440 103.020 C 76.202 101.890,76.024 97.014,75.982 90.436 C 75.897 77.055,75.980 78.223,75.084 77.863 L 74.329 77.559 75.064 77.538 C 75.998 77.511,76.373 76.946,75.591 76.742 C 75.251 76.653,75.427 76.569,76.007 76.544 C 79.225 76.403,77.582 75.849,73.933 75.844 C 70.918 75.840,69.726 75.959,69.388 76.298 M231.767 81.432 C 231.644 81.555,231.544 86.387,231.544 92.170 L 231.544 102.685 234.228 102.685 L 236.913 102.685 236.913 91.946 L 236.913 81.208 234.452 81.208 C 233.098 81.208,231.890 81.309,231.767 81.432 M43.624 91.946 L 43.624 97.315 48.993 97.315 L 54.362 97.315 54.362 91.946 L 54.362 86.577 48.993 86.577 L 43.624 86.577 43.624 91.946 M108.054 91.946 L 108.054 97.315 126.846 97.315 L 145.638 97.315 145.638 91.946 L 145.638 86.577 126.846 86.577 L 108.054 86.577 108.054 91.946 M253.020 91.946 L 253.020 97.315 258.389 97.315 L 263.758 97.315 263.758 91.946 L 263.758 86.577 258.389 86.577 L 253.020 86.577 253.020 91.946 M75.839 226.174 L 75.839 333.557 81.208 333.557 L 86.577 333.557 86.577 226.174 L 86.577 118.792 81.208 118.792 L 75.839 118.792 75.839 226.174 M339.765 119.759 C 329.346 124.761,332.768 140.251,344.295 140.265 C 355.744 140.279,359.193 124.746,348.838 119.805 C 345.862 118.384,342.662 118.368,339.765 119.759 M177.864 173.574 C 177.876 196.599,177.904 197.203,179.163 201.356 C 181.336 208.526,190.619 215.404,198.161 215.431 C 201.119 215.442,207.147 207.853,209.074 201.691 L 210.067 198.517 210.067 174.762 L 210.067 151.007 193.960 151.007 L 177.852 151.007 177.864 173.574 M312.081 188.591 L 312.081 193.960 317.450 193.960 L 322.819 193.960 322.819 188.591 L 322.819 183.221 317.450 183.221 L 312.081 183.221 312.081 188.591 M301.342 210.064 L 301.342 215.436 317.073 215.436 C 330.074 215.436,332.871 215.355,333.190 214.971 C 333.452 214.656,333.546 212.954,333.483 209.686 L 333.389 204.866 317.366 204.779 L 301.342 204.691 301.342 210.064 M312.081 245.084 C 312.081 258.287,311.966 264.338,311.700 265.134 C 311.338 266.219,309.536 268.456,309.024 268.456 C 308.892 268.456,307.676 269.089,306.321 269.863 C 294.161 276.809,285.055 288.723,281.396 302.474 C 280.176 307.057,279.965 306.709,283.977 306.723 C 290.815 306.747,293.511 307.942,299.227 313.483 L 303.319 317.450 316.106 317.450 C 330.683 317.450,330.195 317.535,331.833 314.687 C 335.174 308.873,339.896 306.711,349.257 306.711 L 354.446 306.711 354.202 305.621 C 354.068 305.021,353.834 304.002,353.683 303.356 C 350.386 289.292,340.684 276.541,328.013 269.620 C 322.518 266.619,322.819 268.040,322.819 245.084 L 322.819 226.174 317.450 226.174 L 312.081 226.174 312.081 245.084 M194.326 254.870 C 188.572 260.818,187.186 266.309,189.967 272.148 C 192.630 277.737,197.742 281.158,200.263 279.036 C 206.532 273.761,206.112 260.387,199.447 253.009 C 197.836 251.227,197.858 251.219,194.326 254.870 M175.671 312.317 C 169.514 313.771,167.282 317.637,167.282 326.846 L 167.282 333.389 198.957 333.475 C 223.542 333.541,230.743 333.469,231.127 333.150 C 231.979 332.442,231.561 320.799,230.609 318.752 C 229.172 315.658,225.748 313.079,222.214 312.426 C 220.367 312.084,177.084 311.983,175.671 312.317 M279.866 319.715 C 279.868 334.574,292.353 349.778,307.961 353.926 C 312.183 355.049,320.846 355.426,323.288 354.594 C 329.575 352.452,340.254 339.323,342.582 330.872 C 342.811 330.042,343.139 328.899,343.311 328.332 C 343.483 327.765,343.624 326.830,343.624 326.254 C 343.624 325.679,343.775 325.114,343.960 325.000 C 344.488 324.674,344.398 317.450,343.867 317.450 C 343.026 317.450,341.904 318.543,340.396 320.831 C 336.050 327.428,333.574 328.190,316.500 328.183 C 301.176 328.177,299.311 327.826,295.356 324.202 C 293.975 322.936,293.771 322.860,291.330 322.718 C 286.681 322.446,284.124 321.411,281.550 318.759 C 279.892 317.050,279.866 317.064,279.866 319.715 M48.993 349.664 L 48.993 355.034 145.638 355.034 L 242.282 355.034 242.282 349.664 L 242.282 344.295 145.638 344.295 L 48.993 344.295 48.993 349.664 " stroke="none" fill="#fae8cf" fill-rule="evenodd"></path><path id="path1" d="M210.067 174.762 L 210.067 198.517 209.074 201.691 C 207.744 205.942,205.875 208.970,202.401 212.500 C 199.069 215.885,199.171 216.015,204.173 214.755 C 212.449 212.670,218.216 206.802,220.323 198.322 C 220.687 196.855,220.784 191.808,220.793 173.742 L 220.805 151.007 215.436 151.007 L 210.067 151.007 210.067 174.762 M281.069 318.285 C 281.744 319.315,285.347 321.760,286.539 321.997 C 287.022 322.092,287.880 322.317,288.447 322.495 C 289.732 322.899,293.289 322.922,293.289 322.526 C 293.289 322.365,292.156 321.157,290.771 319.841 L 288.253 317.450 284.387 317.450 L 280.521 317.450 281.069 318.285 M344.295 321.121 C 344.295 323.207,344.150 324.882,343.960 325.000 C 343.775 325.114,343.624 325.679,343.624 326.254 C 343.624 326.830,343.483 327.765,343.311 328.332 C 343.139 328.899,342.811 330.042,342.582 330.872 C 340.658 337.856,333.341 347.829,326.479 352.822 C 324.075 354.572,324.301 354.694,327.856 353.564 C 343.353 348.640,355.033 333.876,355.033 319.211 L 355.034 317.450 349.664 317.450 L 344.295 317.450 344.295 321.121 " stroke="none" fill="#04b6e0" fill-rule="evenodd"></path><path id="path2" d="M159.228 33.705 C 156.432 35.314,156.418 35.391,156.420 49.586 C 156.421 57.230,156.543 62.017,156.734 61.899 C 156.906 61.792,157.047 61.910,157.047 62.161 C 157.047 62.822,159.654 65.434,160.331 65.451 C 160.647 65.459,162.265 65.497,163.926 65.535 L 166.946 65.604 167.045 68.037 L 167.143 70.470 158.603 70.470 C 150.404 70.470,150.007 70.500,148.657 71.221 C 147.257 71.968,145.638 74.145,145.638 75.281 C 145.638 75.795,144.139 75.839,126.824 75.839 C 107.760 75.839,106.414 75.757,106.849 74.621 C 106.971 74.303,106.900 74.212,106.651 74.366 C 106.389 74.528,106.334 74.419,106.483 74.031 C 106.604 73.714,106.577 73.534,106.422 73.629 C 106.156 73.794,103.866 70.593,103.861 70.050 C 103.860 69.912,103.708 69.771,103.523 69.736 C 103.339 69.702,102.300 69.020,101.216 68.222 C 100.131 67.423,98.877 66.678,98.429 66.565 L 97.614 66.361 97.652 57.425 C 97.701 46.031,97.748 46.964,97.145 47.195 C 96.783 47.334,96.664 47.194,96.726 46.702 C 96.773 46.324,96.661 45.983,96.477 45.944 C 96.292 45.904,95.990 45.680,95.805 45.446 C 94.446 43.719,93.689 43.624,81.207 43.624 C 64.390 43.624,65.136 43.004,65.090 57.025 L 65.061 66.048 63.151 66.992 C 62.101 67.511,61.091 67.889,60.906 67.833 C 60.721 67.776,60.669 67.828,60.789 67.948 C 60.910 68.069,60.352 68.772,59.550 69.512 C 58.747 70.252,57.597 71.638,56.993 72.593 C 56.389 73.548,55.814 74.404,55.716 74.497 C 55.617 74.589,55.537 74.891,55.537 75.168 C 55.537 75.601,54.257 75.684,46.392 75.760 C 32.263 75.898,32.951 75.079,32.913 91.821 C 32.891 101.257,32.980 103.835,33.359 104.743 C 34.000 106.275,36.103 108.385,37.013 108.408 C 37.419 108.418,41.602 108.416,46.309 108.403 C 55.830 108.378,55.244 108.250,56.521 110.620 C 58.122 113.591,62.282 117.780,63.118 117.263 C 63.286 117.159,63.423 117.260,63.423 117.486 C 63.423 117.712,63.524 117.796,63.647 117.673 C 63.771 117.549,64.148 117.698,64.486 118.004 C 65.079 118.541,65.101 122.291,65.101 226.059 L 65.101 333.557 53.868 333.557 C 37.183 333.557,38.244 332.421,38.277 350.257 C 38.292 357.895,38.422 362.688,38.613 362.570 C 38.785 362.463,38.926 362.582,38.926 362.832 C 38.926 363.607,41.573 366.108,42.378 366.094 C 43.071 366.082,246.678 366.440,248.777 366.457 C 250.158 366.468,252.064 365.431,252.858 364.237 C 253.523 363.238,253.541 362.822,253.445 350.815 C 253.391 343.999,253.348 338.088,253.351 337.678 C 253.354 337.130,253.213 336.989,252.814 337.142 C 252.383 337.307,252.318 337.202,252.501 336.628 C 252.637 336.197,252.585 335.906,252.372 335.906 C 251.928 335.906,250.474 334.484,250.583 334.156 C 250.627 334.025,250.436 334.004,250.159 334.110 C 249.883 334.216,249.466 334.146,249.234 333.953 C 249.001 333.760,247.455 333.530,245.798 333.441 C 244.141 333.352,242.747 333.267,242.701 333.251 C 242.512 333.185,242.670 324.502,242.898 322.459 C 243.139 320.295,242.121 315.185,241.691 316.399 C 241.602 316.651,240.949 315.627,240.242 314.122 C 239.534 312.616,238.649 310.995,238.274 310.519 C 237.900 310.042,237.675 309.519,237.776 309.357 C 237.877 309.194,237.781 309.060,237.563 309.060 C 237.344 309.060,236.188 308.146,234.994 307.028 C 233.585 305.710,231.919 304.573,230.253 303.793 C 228.840 303.131,227.422 302.460,227.102 302.302 C 226.781 302.143,225.838 302.013,225.005 302.013 C 224.172 302.013,223.490 301.862,223.490 301.678 C 223.490 301.462,220.187 301.342,214.253 301.342 L 205.017 301.342 205.109 296.061 L 205.201 290.780 206.087 290.356 C 206.575 290.122,207.368 289.899,207.849 289.859 C 208.331 289.819,208.725 289.694,208.725 289.581 C 208.725 289.468,209.140 289.161,209.648 288.899 C 210.155 288.637,210.920 288.080,211.347 287.661 C 211.774 287.243,212.288 287.002,212.490 287.126 C 212.691 287.251,212.760 287.198,212.644 287.009 C 212.446 286.690,213.476 285.467,213.786 285.654 C 213.863 285.700,213.892 285.679,213.850 285.607 C 213.809 285.534,214.498 284.628,215.382 283.593 C 216.952 281.754,218.602 279.529,218.644 279.195 C 218.656 279.102,218.934 278.423,219.263 277.685 C 221.633 272.368,222.261 266.980,221.159 261.421 C 220.753 259.373,220.154 258.426,220.101 259.748 C 220.076 260.380,219.967 260.252,219.635 259.200 C 219.397 258.446,218.948 257.338,218.637 256.737 C 218.327 256.136,218.167 255.398,218.282 255.097 C 218.397 254.797,218.384 254.659,218.252 254.790 C 218.120 254.922,217.406 254.087,216.664 252.934 C 215.902 251.750,212.535 248.045,208.916 244.409 C 201.182 236.639,200.078 236.009,197.032 237.635 C 195.405 238.504,180.975 253.020,181.739 253.020 C 181.819 253.020,181.444 253.813,180.905 254.782 C 179.206 257.836,178.320 261.142,177.957 265.772 C 177.800 267.776,177.940 268.884,178.885 273.154 C 179.290 274.983,181.982 280.629,182.886 281.546 C 182.978 281.640,184.111 282.845,185.403 284.226 C 187.618 286.593,189.957 288.590,190.519 288.596 C 191.235 288.603,191.930 289.016,191.741 289.322 C 191.604 289.544,191.787 289.587,192.248 289.440 C 192.645 289.314,192.928 289.336,192.878 289.488 C 192.827 289.640,192.919 289.790,193.083 289.820 C 193.793 289.952,193.950 291.075,193.955 296.057 L 193.960 301.342 184.584 301.342 C 179.427 301.342,175.126 301.474,175.027 301.634 C 174.927 301.795,174.097 301.999,173.181 302.087 C 170.486 302.346,166.094 304.660,163.446 307.216 C 162.204 308.415,161.086 309.321,160.963 309.229 C 160.839 309.136,160.803 309.150,160.882 309.260 C 160.961 309.369,160.519 310.250,159.900 311.217 C 158.359 313.628,157.047 316.972,157.047 318.494 C 157.047 319.190,156.896 319.852,156.711 319.966 C 156.506 320.093,156.376 322.767,156.376 326.867 L 156.376 333.561 127.097 333.475 L 97.819 333.389 97.734 226.440 L 97.650 119.490 98.385 118.806 C 98.789 118.429,99.321 118.121,99.567 118.121 C 101.130 118.121,105.690 113.667,107.184 110.680 C 108.423 108.205,106.903 108.376,127.507 108.395 C 145.090 108.411,145.295 108.419,145.659 109.100 C 145.862 109.479,145.951 109.866,145.858 109.959 C 145.681 110.135,146.892 111.644,148.287 112.985 C 148.729 113.411,149.409 113.765,149.797 113.773 C 150.186 113.781,154.203 113.819,158.725 113.857 L 166.946 113.926 167.146 155.705 C 167.371 202.837,167.309 201.784,170.177 207.466 C 170.712 208.528,171.035 209.398,170.894 209.401 C 170.753 209.404,170.789 209.517,170.973 209.653 C 171.158 209.788,172.064 211.028,172.987 212.408 C 175.287 215.847,180.697 221.170,181.607 220.889 C 181.757 220.843,181.879 220.964,181.879 221.158 C 181.879 221.353,182.332 221.669,182.886 221.862 C 183.440 222.055,183.893 222.358,183.893 222.536 C 183.893 222.713,184.044 222.765,184.228 222.651 C 184.413 222.537,184.564 222.612,184.564 222.819 C 184.564 223.025,184.699 223.110,184.864 223.008 C 185.029 222.906,185.258 223.065,185.372 223.362 C 185.503 223.704,185.823 223.838,186.246 223.727 C 186.670 223.616,186.832 223.684,186.690 223.914 C 186.551 224.140,186.669 224.197,187.008 224.067 C 187.389 223.922,187.494 224.005,187.363 224.346 C 187.241 224.665,187.395 224.832,187.809 224.832 C 188.157 224.832,188.739 225.038,189.103 225.290 C 189.467 225.541,190.218 225.833,190.772 225.939 C 191.326 226.045,192.469 226.282,193.314 226.467 C 198.133 227.522,204.978 227.067,210.009 225.355 C 211.333 224.905,212.416 224.614,212.416 224.708 C 212.416 224.803,212.644 224.652,212.923 224.373 C 213.202 224.094,213.731 223.923,214.098 223.994 C 214.465 224.065,214.765 223.999,214.765 223.847 C 214.765 223.695,215.218 223.384,215.772 223.154 C 216.326 222.925,216.779 222.605,216.779 222.443 C 216.779 222.280,217.002 222.148,217.276 222.148 C 218.098 222.148,224.838 215.940,225.656 214.430 C 225.906 213.968,226.441 213.213,226.845 212.752 C 228.013 211.417,230.430 206.116,231.206 203.188 C 231.597 201.711,232.034 200.120,232.178 199.651 C 232.321 199.182,232.376 198.050,232.300 197.134 C 231.916 192.526,231.872 115.238,232.253 114.525 C 232.671 113.745,245.525 113.421,247.553 114.139 C 249.768 114.925,253.028 112.671,253.734 109.868 L 254.108 108.383 261.702 108.542 C 265.878 108.629,269.726 108.711,270.254 108.723 C 271.621 108.756,273.534 107.723,274.335 106.519 C 274.999 105.520,275.018 105.104,274.922 93.096 C 274.867 86.281,274.825 80.370,274.827 79.960 C 274.831 79.412,274.689 79.270,274.290 79.424 C 273.859 79.589,273.795 79.484,273.977 78.910 C 274.140 78.396,274.065 78.188,273.716 78.188 C 273.447 78.188,273.154 77.999,273.065 77.768 C 272.455 76.185,270.449 75.839,261.873 75.839 L 253.674 75.839 253.478 74.857 C 253.339 74.160,253.135 73.931,252.777 74.069 C 252.387 74.218,252.324 74.098,252.501 73.541 C 252.664 73.027,252.589 72.819,252.240 72.819 C 251.970 72.819,251.677 72.630,251.588 72.399 C 250.984 70.830,248.949 70.470,240.656 70.465 C 231.394 70.459,231.800 70.588,231.930 67.696 L 232.029 65.494 235.760 65.635 C 240.773 65.825,243.087 64.281,242.983 60.817 C 242.955 59.886,242.682 41.668,242.624 36.839 C 242.620 36.447,242.444 36.329,242.075 36.471 C 241.644 36.636,241.580 36.531,241.762 35.957 C 241.926 35.443,241.850 35.235,241.501 35.235 C 241.232 35.235,240.939 35.046,240.850 34.815 C 240.761 34.585,240.051 34.056,239.272 33.641 L 237.856 32.886 199.213 32.909 L 160.570 32.932 159.228 33.705 M309.060 33.221 C 308.784 33.400,308.016 33.549,307.354 33.552 C 299.917 33.584,289.915 42.129,286.726 51.174 C 285.348 55.085,285.028 64.512,286.200 66.701 C 286.407 67.088,286.577 67.597,286.577 67.832 C 286.577 68.746,289.681 74.573,291.087 76.300 C 291.904 77.302,292.469 78.237,292.343 78.377 C 292.217 78.517,292.302 78.523,292.532 78.391 C 292.795 78.239,293.095 78.469,293.341 79.008 C 293.556 79.480,293.909 79.866,294.126 79.866 C 294.343 79.866,294.924 80.319,295.417 80.872 C 295.910 81.426,296.517 81.879,296.766 81.879 C 297.014 81.879,297.584 82.219,298.032 82.634 C 298.480 83.049,299.069 83.389,299.340 83.389 C 299.611 83.389,299.796 83.573,299.752 83.797 C 299.708 84.023,299.882 84.124,300.144 84.023 C 300.403 83.924,301.043 84.085,301.566 84.383 C 302.427 84.873,302.439 84.903,301.694 84.700 C 299.895 84.209,301.855 85.412,304.027 86.131 C 309.802 88.042,315.586 87.903,321.980 85.700 C 323.826 85.064,325.487 84.510,325.671 84.469 C 325.856 84.429,326.251 84.132,326.549 83.809 C 326.848 83.486,327.270 83.221,327.487 83.221 C 327.705 83.221,328.263 82.841,328.728 82.376 C 329.193 81.911,329.738 81.633,329.939 81.757 C 330.140 81.881,330.211 81.831,330.097 81.646 C 329.982 81.461,330.223 81.118,330.632 80.884 C 335.271 78.228,339.942 67.170,339.753 59.288 C 339.664 55.572,339.455 54.442,338.317 51.510 C 337.589 49.634,337.109 49.185,337.738 50.968 C 338.022 51.774,338.246 52.679,338.235 52.978 C 338.225 53.278,337.872 52.542,337.452 51.342 C 336.653 49.058,335.397 46.488,334.264 44.820 C 333.896 44.277,333.671 43.711,333.764 43.561 C 333.856 43.411,333.758 43.289,333.544 43.289 C 333.331 43.289,332.484 42.541,331.662 41.626 C 330.840 40.712,329.231 39.258,328.087 38.394 C 326.943 37.531,326.048 36.682,326.099 36.508 C 326.150 36.334,326.042 36.284,325.859 36.397 C 325.676 36.510,324.883 36.275,324.098 35.874 C 321.529 34.563,318.323 33.557,316.716 33.557 C 315.849 33.557,315.047 33.406,314.933 33.221 C 314.667 32.791,309.726 32.791,309.060 33.221 M231.544 48.993 L 231.544 54.362 199.329 54.362 L 167.114 54.362 167.114 48.993 L 167.114 43.624 199.329 43.624 L 231.544 43.624 231.544 48.993 M317.014 44.007 C 320.218 45.315,321.621 46.205,323.604 48.188 C 325.711 50.295,327.517 53.165,327.517 54.408 C 327.517 54.730,327.668 55.087,327.852 55.201 C 328.048 55.322,328.188 57.212,328.188 59.732 C 328.188 62.251,328.048 64.141,327.852 64.262 C 327.668 64.376,327.517 64.757,327.517 65.109 C 327.517 67.940,320.192 75.168,317.323 75.168 C 317.045 75.168,316.725 75.319,316.611 75.503 C 316.323 75.968,308.318 75.932,307.147 75.461 C 299.397 72.340,295.973 67.442,295.973 59.473 C 295.973 55.659,296.071 55.213,297.609 52.040 C 298.525 50.147,302.717 45.638,303.558 45.638 C 303.816 45.638,304.027 45.487,304.027 45.302 C 304.027 45.117,304.320 44.966,304.678 44.966 C 305.036 44.966,305.423 44.815,305.537 44.631 C 305.651 44.446,306.104 44.295,306.544 44.295 C 306.983 44.295,307.436 44.144,307.550 43.960 C 307.840 43.491,315.847 43.531,317.014 44.007 M338.926 55.389 C 338.926 56.116,338.775 56.711,338.591 56.711 C 338.406 56.711,338.255 56.023,338.255 55.182 C 338.255 54.247,338.386 53.732,338.591 53.859 C 338.775 53.973,338.926 54.662,338.926 55.389 M86.577 59.732 L 86.577 65.101 81.208 65.101 L 75.839 65.101 75.839 59.732 L 75.839 54.362 81.208 54.362 L 86.577 54.362 86.577 59.732 M241.670 62.487 C 241.292 63.100,240.526 63.938,239.968 64.351 C 238.368 65.533,238.324 65.225,239.900 63.877 C 240.686 63.204,241.472 62.277,241.647 61.817 C 241.822 61.357,242.054 61.069,242.162 61.177 C 242.270 61.286,242.049 61.875,241.670 62.487 M338.628 65.112 C 338.337 65.841,338.295 65.757,338.276 64.402 C 338.265 63.556,338.368 62.748,338.507 62.608 C 338.900 62.208,338.996 64.190,338.628 65.112 M220.805 102.685 L 220.805 140.268 199.329 140.268 L 177.852 140.268 177.852 102.685 L 177.852 65.101 199.329 65.101 L 220.805 65.101 220.805 102.685 M337.427 69.298 C 334.627 76.737,327.848 83.216,320.574 85.405 C 318.379 86.066,318.344 85.771,320.532 85.055 C 328.368 82.491,335.737 74.960,337.640 67.572 C 337.871 66.674,338.111 66.182,338.173 66.479 C 338.235 66.775,337.899 68.044,337.427 69.298 M95.001 76.589 C 97.358 78.331,97.315 78.045,97.315 92.122 L 97.315 104.802 96.459 105.925 C 94.819 108.075,94.976 108.054,80.880 108.054 L 68.103 108.054 66.602 106.552 L 65.101 105.051 65.102 92.207 C 65.104 74.265,63.542 75.842,81.306 75.840 C 93.906 75.839,93.993 75.844,95.001 76.589 M167.114 91.946 L 167.114 102.685 161.745 102.685 L 156.376 102.685 156.376 91.946 L 156.376 81.208 161.745 81.208 L 167.114 81.208 167.114 91.946 M242.282 91.946 L 242.282 102.685 236.913 102.685 L 231.544 102.685 231.544 91.946 L 231.544 81.208 236.913 81.208 L 242.282 81.208 242.282 91.946 M317.701 86.137 C 317.378 86.222,316.850 86.222,316.527 86.137 C 316.204 86.053,316.468 85.984,317.114 85.984 C 317.760 85.984,318.024 86.053,317.701 86.137 M54.362 91.946 L 54.362 97.315 48.993 97.315 L 43.624 97.315 43.624 91.946 L 43.624 86.577 48.993 86.577 L 54.362 86.577 54.362 91.946 M145.638 91.946 L 145.638 97.315 126.846 97.315 L 108.054 97.315 108.054 91.946 L 108.054 86.577 126.846 86.577 L 145.638 86.577 145.638 91.946 M263.758 91.946 L 263.758 97.315 258.389 97.315 L 253.020 97.315 253.020 91.946 L 253.020 86.577 258.389 86.577 L 263.758 86.577 263.758 91.946 M274.038 105.283 C 273.758 105.824,273.002 106.668,272.358 107.160 C 270.630 108.478,270.459 108.246,272.114 106.830 C 272.901 106.157,273.687 105.230,273.862 104.770 C 274.037 104.310,274.262 104.016,274.363 104.117 C 274.464 104.218,274.317 104.742,274.038 105.283 M106.493 110.101 C 104.842 113.137,99.850 117.785,98.242 117.785 C 98.071 117.785,99.067 117.025,100.456 116.096 C 103.075 114.344,104.980 112.263,106.380 109.626 C 106.828 108.781,107.252 108.147,107.322 108.217 C 107.392 108.287,107.019 109.135,106.493 110.101 M341.497 108.419 C 341.158 108.624,340.365 108.731,339.735 108.658 C 339.106 108.584,338.591 108.621,338.591 108.739 C 338.591 108.994,335.923 109.895,335.322 109.843 C 335.094 109.824,334.969 109.908,335.045 110.032 C 335.122 110.156,334.382 110.677,333.401 111.190 C 332.397 111.716,330.505 113.267,329.072 114.740 C 327.673 116.178,326.424 117.263,326.297 117.151 C 326.170 117.038,326.159 117.108,326.271 117.306 C 326.383 117.503,326.171 118.166,325.799 118.778 C 323.481 122.588,322.603 127.782,323.271 133.725 C 323.588 136.546,326.006 141.301,328.523 144.052 C 329.354 144.960,330.154 145.914,330.302 146.173 C 330.450 146.432,330.752 146.648,330.973 146.653 C 331.665 146.668,334.896 148.883,334.640 149.167 C 334.506 149.315,334.584 149.329,334.813 149.197 C 335.042 149.065,335.495 149.112,335.819 149.300 C 336.144 149.489,336.290 149.649,336.144 149.654 C 335.999 149.660,336.074 149.875,336.312 150.132 C 336.633 150.479,336.919 150.510,337.416 150.254 C 337.785 150.064,337.975 150.029,337.838 150.176 C 337.352 150.695,338.794 151.259,341.708 151.690 C 347.632 152.565,355.023 150.454,359.046 146.739 C 364.097 142.073,366.758 136.042,366.573 129.675 C 366.477 126.377,365.842 123.202,365.793 125.775 C 365.764 127.271,365.101 126.812,365.101 125.296 C 365.101 124.598,365.237 124.206,365.436 124.329 C 365.863 124.593,365.863 123.815,365.436 123.154 C 365.147 122.707,365.109 122.707,365.097 123.154 C 365.089 123.431,364.489 122.406,363.764 120.877 C 363.039 119.348,362.139 117.707,361.764 117.230 C 361.390 116.754,361.165 116.231,361.266 116.068 C 361.367 115.905,361.271 115.772,361.052 115.772 C 360.834 115.772,359.716 114.892,358.567 113.818 C 356.756 112.124,353.391 110.121,350.503 109.019 C 348.706 108.333,342.343 107.909,341.497 108.419 M252.409 110.809 C 252.030 111.422,251.264 112.260,250.706 112.673 C 249.107 113.855,249.062 113.548,250.638 112.199 C 251.424 111.526,252.211 110.599,252.385 110.139 C 252.560 109.679,252.792 109.391,252.900 109.500 C 253.008 109.608,252.787 110.197,252.409 110.809 M86.577 226.174 L 86.577 333.557 81.208 333.557 L 75.839 333.557 75.839 226.174 L 75.839 118.792 81.208 118.792 L 86.577 118.792 86.577 226.174 M349.182 119.600 C 357.188 123.505,357.191 135.449,349.187 139.437 C 346.740 140.657,341.852 140.648,339.304 139.419 C 331.368 135.590,331.416 123.817,339.385 119.597 C 341.509 118.472,346.873 118.474,349.182 119.600 M365.473 134.241 C 365.151 135.047,365.143 135.042,365.122 134.004 C 365.093 132.534,365.564 131.366,365.703 132.563 C 365.758 133.032,365.654 133.787,365.473 134.241 M363.973 138.673 C 361.343 144.117,353.953 150.397,350.258 150.328 C 350.024 150.323,350.708 149.959,351.779 149.519 C 357.639 147.110,362.435 142.305,364.306 136.971 C 364.651 135.988,364.982 135.421,365.041 135.711 C 365.101 136.001,364.620 137.334,363.973 138.673 M349.636 150.459 C 349.560 150.527,348.893 150.674,348.154 150.786 C 347.219 150.929,347.015 150.899,347.483 150.687 C 348.127 150.395,349.925 150.205,349.636 150.459 M220.805 173.943 C 220.805 186.558,220.670 197.318,220.505 197.853 C 220.339 198.388,219.950 199.685,219.640 200.736 C 217.606 207.637,210.917 213.464,203.188 215.071 C 192.716 217.247,181.906 210.666,178.681 200.150 L 177.852 197.449 177.852 174.228 L 177.852 151.007 199.329 151.007 L 220.805 151.007 220.805 173.943 M304.228 173.293 C 301.540 174.861,301.342 175.685,301.342 185.347 L 301.342 193.830 298.951 194.451 C 296.291 195.141,294.402 196.392,292.747 198.563 C 292.161 199.331,291.628 199.906,291.562 199.841 C 291.497 199.776,291.408 200.199,291.366 200.781 C 291.324 201.363,291.129 202.227,290.933 202.700 C 290.470 203.818,290.677 216.812,291.186 218.585 C 291.642 220.173,294.291 224.161,294.890 224.161 C 295.128 224.161,295.406 224.378,295.508 224.643 C 295.610 224.908,295.906 225.044,296.167 224.944 C 296.455 224.833,296.764 225.071,296.956 225.552 C 297.130 225.987,297.282 226.154,297.294 225.923 C 297.306 225.692,297.580 225.506,297.903 225.508 C 298.329 225.512,298.373 225.588,298.064 225.784 C 297.752 225.982,297.842 226.152,298.400 226.420 C 299.816 227.099,300.419 227.194,300.881 226.810 C 301.271 226.487,301.342 229.074,301.342 243.574 L 301.342 260.721 300.419 261.200 C 299.912 261.464,297.883 262.811,295.910 264.194 C 293.937 265.576,292.214 266.610,292.081 266.491 C 291.948 266.372,291.933 266.440,292.048 266.642 C 292.163 266.844,291.345 267.750,290.230 268.656 C 285.903 272.170,279.921 279.851,276.573 286.190 C 275.679 287.882,274.839 289.156,274.705 289.022 C 274.571 288.888,274.546 289.001,274.651 289.273 C 274.755 289.544,274.334 290.974,273.716 292.450 C 273.098 293.927,272.387 295.842,272.135 296.707 C 271.884 297.571,271.559 298.205,271.413 298.115 C 271.268 298.025,271.234 298.174,271.338 298.445 C 271.442 298.716,271.302 299.818,271.027 300.895 C 270.094 304.549,269.799 306.422,269.799 308.683 C 269.799 309.924,269.640 311.098,269.446 311.293 C 268.711 312.027,269.396 323.275,270.474 328.188 C 270.697 329.203,270.901 330.336,270.926 330.705 C 270.952 331.074,271.101 331.469,271.258 331.584 C 271.414 331.698,271.565 332.189,271.593 332.674 C 271.621 333.159,271.737 333.557,271.850 333.557 C 271.964 333.557,272.326 334.274,272.655 335.151 C 275.454 342.604,285.285 355.375,289.302 356.776 C 289.833 356.961,290.183 357.249,290.080 357.415 C 289.978 357.582,290.195 357.718,290.564 357.718 C 290.934 357.718,291.324 357.861,291.431 358.035 C 291.539 358.209,292.793 358.991,294.219 359.772 C 295.645 360.554,296.888 361.280,296.980 361.385 C 297.072 361.491,297.299 361.580,297.483 361.583 C 298.470 361.599,300.382 362.515,299.966 362.773 C 299.416 363.113,299.431 363.124,301.510 363.885 C 305.872 365.484,311.253 366.475,315.101 366.389 C 316.854 366.350,318.742 366.424,319.295 366.554 C 323.503 367.539,336.517 363.655,343.779 359.247 C 345.164 358.406,346.366 357.718,346.449 357.718 C 346.533 357.718,347.238 357.152,348.015 356.460 C 358.816 346.842,363.797 338.283,366.129 325.336 C 367.175 319.529,366.276 303.494,364.743 300.630 C 364.558 300.284,364.480 300.000,364.571 300.000 C 364.661 300.000,364.521 299.394,364.260 298.653 C 363.999 297.912,363.765 297.195,363.741 297.059 C 363.670 296.653,363.108 295.784,363.097 296.063 C 363.092 296.205,363.395 297.471,363.772 298.875 C 364.148 300.280,364.399 301.599,364.330 301.806 C 364.260 302.012,364.006 301.351,363.766 300.336 C 362.854 296.488,360.942 291.310,359.047 287.558 C 358.488 286.450,358.135 285.375,358.262 285.170 C 358.413 284.926,358.339 284.891,358.049 285.070 C 357.723 285.271,357.663 285.191,357.825 284.769 C 357.947 284.452,357.911 284.277,357.746 284.379 C 357.581 284.481,357.029 283.847,356.520 282.970 C 356.010 282.093,355.253 280.923,354.836 280.369 C 354.420 279.815,354.030 279.161,353.969 278.915 C 353.909 278.669,353.357 277.955,352.743 277.330 C 352.130 276.704,351.723 276.037,351.840 275.847 C 351.957 275.658,351.898 275.503,351.709 275.503 C 351.520 275.503,350.038 274.121,348.417 272.432 C 344.692 268.551,340.586 265.115,336.845 262.751 L 333.926 260.906 333.909 244.407 C 333.891 226.055,333.818 226.848,335.522 226.841 C 341.215 226.817,345.498 221.416,344.900 215.014 C 344.758 213.493,344.675 209.908,344.715 207.047 C 344.779 202.552,344.706 201.709,344.185 200.839 C 343.853 200.285,343.686 200.134,343.814 200.503 C 344.292 201.886,344.394 202.785,344.047 202.571 C 343.732 202.376,343.351 201.036,343.203 199.605 C 343.171 199.295,343.060 199.068,342.957 199.101 C 342.854 199.134,342.186 198.515,341.472 197.726 C 340.758 196.937,339.751 196.041,339.233 195.735 C 338.715 195.429,338.382 195.032,338.493 194.853 C 338.605 194.671,338.520 194.635,338.300 194.771 C 337.901 195.018,336.041 194.561,334.628 193.869 L 333.854 193.490 333.895 185.419 C 333.947 174.995,333.996 175.820,333.351 176.068 C 332.920 176.233,332.855 176.128,333.038 175.554 C 333.201 175.040,333.125 174.832,332.777 174.832 C 332.507 174.832,332.214 174.643,332.125 174.413 C 331.310 172.294,307.574 171.342,304.228 173.293 M322.819 188.591 L 322.819 193.960 317.450 193.960 L 312.081 193.960 312.081 188.591 L 312.081 183.221 317.450 183.221 L 322.819 183.221 322.819 188.591 M231.510 198.070 C 231.442 200.280,230.942 200.975,230.906 198.909 C 230.887 197.824,231.019 196.980,231.208 196.980 C 231.393 196.980,231.529 197.471,231.510 198.070 M230.180 204.106 C 227.297 212.299,221.811 218.717,214.343 222.635 C 211.587 224.081,207.152 225.720,206.840 225.408 C 206.750 225.318,207.703 224.930,208.959 224.545 C 218.696 221.566,227.365 212.814,230.059 203.243 C 230.414 201.981,230.753 201.186,230.812 201.476 C 230.871 201.766,230.587 202.949,230.180 204.106 M333.557 210.067 L 333.557 215.436 317.450 215.436 L 301.342 215.436 301.342 210.067 L 301.342 204.698 317.450 204.698 L 333.557 204.698 333.557 210.067 M343.531 219.898 C 342.117 222.986,337.530 226.662,335.809 226.086 C 335.585 226.011,336.191 225.688,337.154 225.367 C 340.206 224.353,343.083 221.159,343.832 217.953 C 343.995 217.254,344.110 217.126,344.206 217.534 C 344.282 217.857,343.978 218.920,343.531 219.898 M205.285 225.735 C 204.962 225.819,204.434 225.819,204.111 225.735 C 203.788 225.650,204.052 225.581,204.698 225.581 C 205.344 225.581,205.608 225.650,205.285 225.735 M322.909 245.050 C 323.033 268.182,322.731 266.701,327.852 269.331 C 339.300 275.211,350.030 288.642,353.289 301.174 C 353.481 301.913,353.801 303.138,354.000 303.898 C 354.765 306.813,355.013 306.661,349.245 306.820 C 339.260 307.096,335.777 308.653,332.086 314.492 C 330.088 317.651,331.163 317.450,316.284 317.446 L 303.188 317.442 299.313 313.641 C 293.716 308.151,291.474 307.154,283.977 306.821 L 280.537 306.668 280.537 305.535 C 280.537 304.912,280.688 304.309,280.872 304.195 C 281.057 304.081,281.208 303.592,281.208 303.108 C 281.208 300.860,284.522 292.785,287.511 287.752 C 291.732 280.642,299.815 273.024,307.047 269.340 C 309.899 267.887,311.409 266.401,311.409 265.049 C 311.409 264.546,311.560 264.040,311.745 263.926 C 311.962 263.792,312.081 257.099,312.081 244.947 L 312.081 226.174 317.444 226.174 L 322.808 226.174 322.909 245.050 M203.581 253.943 C 211.712 262.229,212.501 269.478,206.047 276.577 C 197.380 286.111,183.988 272.655,189.842 260.295 C 190.767 258.342,198.442 249.664,199.245 249.664 C 199.321 249.664,201.273 251.590,203.581 253.943 M220.777 262.919 C 220.762 263.974,220.696 264.118,220.470 263.591 C 220.049 262.611,220.049 260.423,220.470 261.074 C 220.649 261.351,220.787 262.181,220.777 262.919 M220.507 271.488 C 220.179 272.310,220.177 272.309,220.160 271.309 C 220.133 269.680,220.607 268.312,220.737 269.643 C 220.792 270.203,220.689 271.033,220.507 271.488 M219.351 275.494 C 217.245 280.710,211.934 286.757,207.605 288.870 C 206.345 289.486,205.251 289.926,205.174 289.850 C 205.098 289.773,206.169 289.135,207.554 288.432 C 212.493 285.925,218.694 278.292,219.693 273.490 C 219.828 272.836,219.990 272.567,220.056 272.884 C 220.122 273.196,219.805 274.371,219.351 275.494 M362.186 293.844 C 362.570 294.888,362.935 295.591,362.997 295.406 C 363.112 295.061,361.880 291.946,361.628 291.946 C 361.550 291.946,361.801 292.800,362.186 293.844 M365.044 304.866 C 365.034 305.847,365.027 305.852,364.765 305.034 C 364.371 303.803,364.371 302.271,364.765 303.188 C 364.924 303.557,365.049 304.312,365.044 304.866 M365.772 308.912 C 365.772 310.294,365.647 311.036,365.436 310.906 C 364.837 310.536,365.041 306.711,365.660 306.711 C 365.721 306.711,365.772 307.702,365.772 308.912 M225.431 312.884 C 230.427 315.422,231.544 317.941,231.544 326.667 L 231.544 333.557 199.329 333.557 L 167.114 333.557 167.117 326.762 C 167.122 317.933,168.185 315.489,173.142 312.905 L 174.664 312.112 199.256 312.096 L 223.848 312.081 225.431 312.884 M292.343 321.306 C 296.991 325.642,298.972 326.832,302.852 327.616 C 305.189 328.088,327.868 328.307,328.314 327.861 C 328.503 327.672,329.370 327.517,330.241 327.517 C 333.316 327.517,337.512 324.734,339.853 321.141 C 340.514 320.126,341.435 318.880,341.899 318.372 L 342.743 317.450 348.888 317.450 L 355.034 317.450 355.034 319.359 C 355.034 334.373,342.354 349.882,326.846 353.839 C 325.646 354.145,324.201 354.539,323.634 354.715 C 322.238 355.147,310.503 355.132,310.235 354.698 C 310.121 354.513,309.517 354.362,308.893 354.362 C 308.268 354.362,307.664 354.211,307.550 354.027 C 307.436 353.842,307.052 353.691,306.697 353.691 C 305.768 353.691,300.385 351.313,297.733 349.731 C 291.338 345.915,284.858 338.241,282.376 331.544 C 282.069 330.713,281.697 329.732,281.551 329.362 C 281.404 328.993,281.128 328.087,280.937 327.349 C 280.746 326.611,280.427 325.385,280.228 324.625 C 280.029 323.866,279.866 321.940,279.866 320.347 L 279.866 317.450 284.037 317.450 L 288.209 317.450 292.343 321.306 M242.282 318.980 C 242.282 319.690,242.146 320.090,241.946 319.966 C 241.762 319.852,241.611 319.315,241.611 318.772 C 241.611 318.229,241.762 317.785,241.946 317.785 C 242.131 317.785,242.282 318.323,242.282 318.980 M365.748 322.587 C 365.701 324.708,365.149 325.119,365.124 323.051 C 365.110 321.831,365.226 321.179,365.436 321.309 C 365.621 321.423,365.761 321.998,365.748 322.587 M364.763 328.095 C 364.435 328.610,364.409 328.576,364.570 327.852 C 364.672 327.391,364.781 326.711,364.811 326.342 C 364.847 325.905,364.914 325.990,365.005 326.585 C 365.081 327.088,364.973 327.768,364.763 328.095 M363.398 333.075 C 358.489 347.013,348.599 357.243,334.696 362.766 C 333.284 363.327,331.959 363.729,331.752 363.660 C 331.545 363.590,332.206 363.260,333.221 362.926 C 346.727 358.483,358.968 345.988,363.303 332.218 C 363.830 330.544,364.305 329.377,364.358 329.625 C 364.411 329.873,363.979 331.426,363.398 333.075 M242.282 349.664 L 242.282 355.034 145.638 355.034 L 48.993 355.034 48.993 349.664 L 48.993 344.295 145.638 344.295 L 242.282 344.295 242.282 349.664 M252.561 363.001 C 252.282 363.542,251.526 364.386,250.881 364.878 C 249.153 366.196,248.983 365.965,250.638 364.548 C 251.424 363.875,252.211 362.948,252.385 362.488 C 252.560 362.028,252.786 361.734,252.886 361.835 C 252.987 361.936,252.841 362.461,252.561 363.001 M302.685 363.479 C 303.034 363.696,302.932 363.722,302.349 363.566 C 301.888 363.443,301.284 363.202,301.007 363.031 C 300.657 362.814,300.759 362.788,301.342 362.944 C 301.804 363.067,302.408 363.308,302.685 363.479 M305.201 364.094 C 305.624 364.276,305.686 364.382,305.369 364.382 C 305.092 364.382,304.564 364.253,304.195 364.094 C 303.772 363.912,303.710 363.806,304.027 363.806 C 304.304 363.806,304.832 363.935,305.201 364.094 M330.705 364.094 C 330.336 364.253,329.732 364.382,329.362 364.382 L 328.691 364.382 329.362 364.094 C 329.732 363.935,330.336 363.806,330.705 363.806 L 331.376 363.806 330.705 364.094 M327.852 364.765 C 326.705 365.133,325.823 365.133,326.678 364.765 C 327.047 364.606,327.651 364.481,328.020 364.487 C 328.560 364.494,328.527 364.549,327.852 364.765 M324.077 365.332 C 323.754 365.416,323.226 365.416,322.903 365.332 C 322.580 365.248,322.844 365.179,323.490 365.179 C 324.136 365.179,324.400 365.248,324.077 365.332 " stroke="none" fill="#040404" fill-rule="evenodd"></path><path id="path3" d="M158.855 33.525 C 157.647 34.262,156.262 36.067,156.457 36.651 C 156.530 36.871,156.881 36.466,157.238 35.750 C 157.610 35.004,158.364 34.199,159.006 33.862 C 160.273 33.197,160.657 32.885,160.207 32.887 C 160.038 32.888,159.429 33.175,158.855 33.525 M238.423 33.221 C 238.537 33.406,238.826 33.557,239.065 33.557 C 239.304 33.557,239.916 33.943,240.425 34.415 C 240.933 34.886,241.416 35.206,241.498 35.124 C 241.722 34.899,239.172 32.886,238.662 32.886 C 238.416 32.886,238.309 33.037,238.423 33.221 M306.544 33.221 C 306.016 33.448,306.160 33.514,307.215 33.528 C 307.953 33.538,308.784 33.400,309.060 33.221 C 309.712 32.801,307.523 32.801,306.544 33.221 M314.933 33.221 C 315.047 33.406,315.849 33.546,316.714 33.533 C 317.903 33.516,318.124 33.439,317.617 33.221 C 316.664 32.812,314.680 32.812,314.933 33.221 M303.222 34.084 C 301.346 34.771,298.628 36.149,297.651 36.909 C 297.190 37.267,298.312 36.811,300.146 35.894 C 301.980 34.978,303.754 34.228,304.089 34.228 C 304.424 34.228,304.698 34.077,304.698 33.893 C 304.698 33.708,304.660 33.568,304.614 33.581 C 304.568 33.594,303.942 33.820,303.222 34.084 M323.322 35.529 C 326.491 37.044,329.571 39.301,331.704 41.673 C 332.549 42.613,333.320 43.302,333.417 43.205 C 334.364 42.258,323.246 34.190,321.061 34.237 C 320.828 34.243,321.846 34.824,323.322 35.529 M293.770 39.998 C 292.372 41.325,290.922 42.873,290.547 43.437 C 290.172 44.001,290.571 43.673,291.435 42.707 C 292.298 41.741,293.861 40.195,294.908 39.272 C 295.955 38.349,296.699 37.591,296.561 37.589 C 296.424 37.586,295.167 38.670,293.770 39.998 M67.580 44.263 C 66.372 45.000,64.987 46.806,65.181 47.390 C 65.255 47.610,65.606 47.204,65.963 46.489 C 66.334 45.742,67.088 44.937,67.731 44.600 C 68.998 43.935,69.382 43.624,68.932 43.625 C 68.763 43.626,68.154 43.913,67.580 44.263 M93.456 43.960 C 93.570 44.144,93.859 44.295,94.098 44.295 C 94.337 44.295,94.932 44.666,95.421 45.118 C 95.909 45.571,96.309 45.805,96.309 45.639 C 96.309 45.241,94.180 43.624,93.657 43.624 C 93.432 43.624,93.342 43.775,93.456 43.960 M334.210 44.631 C 335.597 46.907,336.697 49.184,337.452 51.342 C 337.872 52.542,338.225 53.263,338.235 52.944 C 338.285 51.487,335.848 46.122,334.383 44.463 L 333.494 43.456 334.210 44.631 M288.524 46.393 C 287.740 47.629,286.535 50.379,286.644 50.685 C 286.700 50.841,287.300 49.770,287.978 48.303 C 289.228 45.602,289.393 45.023,288.524 46.393 M286.074 52.013 C 285.948 52.410,285.920 52.811,286.013 52.903 C 286.105 52.995,286.283 52.746,286.409 52.349 C 286.535 51.952,286.563 51.552,286.471 51.459 C 286.378 51.367,286.200 51.616,286.074 52.013 M285.491 54.362 C 285.092 55.716,285.172 57.358,285.601 56.622 C 285.790 56.296,285.899 55.465,285.842 54.776 C 285.748 53.646,285.714 53.606,285.491 54.362 M338.255 55.182 C 338.255 56.023,338.406 56.711,338.591 56.711 C 338.775 56.711,338.926 56.116,338.926 55.389 C 338.926 54.662,338.775 53.973,338.591 53.859 C 338.386 53.732,338.255 54.247,338.255 55.182 M241.647 61.817 C 241.472 62.277,240.686 63.204,239.900 63.877 C 238.324 65.225,238.368 65.533,239.968 64.351 C 241.068 63.537,242.480 61.495,242.162 61.177 C 242.054 61.069,241.822 61.357,241.647 61.817 M285.264 63.423 C 285.292 65.226,285.854 66.301,285.877 64.597 C 285.887 63.859,285.749 63.029,285.570 62.752 C 285.328 62.376,285.250 62.546,285.264 63.423 M338.507 62.608 C 338.368 62.748,338.265 63.556,338.276 64.402 C 338.295 65.757,338.337 65.841,338.628 65.112 C 338.996 64.190,338.900 62.208,338.507 62.608 M63.048 66.610 C 60.342 68.020,55.705 72.857,55.705 74.271 C 55.705 74.452,56.282 73.708,56.987 72.616 C 58.546 70.205,60.883 68.092,63.298 66.910 C 64.984 66.086,65.447 65.750,64.849 65.787 C 64.711 65.796,63.900 66.166,63.048 66.610 M97.665 66.004 C 97.672 66.153,98.443 66.634,99.378 67.073 C 101.534 68.085,104.586 71.081,106.001 73.574 C 107.432 76.094,107.726 76.073,106.379 73.546 C 104.746 70.483,97.577 64.278,97.665 66.004 M337.640 67.572 C 335.737 74.960,328.368 82.491,320.532 85.055 C 318.344 85.771,318.379 86.066,320.574 85.405 C 327.848 83.216,334.627 76.737,337.427 69.298 C 337.899 68.044,338.235 66.775,338.173 66.479 C 338.111 66.182,337.871 66.674,337.640 67.572 M285.911 66.821 C 285.906 67.351,286.408 68.708,287.508 71.141 C 288.602 73.563,293.620 80.394,293.623 79.468 C 293.624 79.341,292.790 78.284,291.770 77.119 C 290.024 75.123,286.580 68.941,286.571 67.785 C 286.569 67.508,286.421 67.055,286.242 66.779 C 285.959 66.341,285.916 66.346,285.911 66.821 M300.336 71.309 C 300.962 71.955,301.549 72.483,301.642 72.483 C 301.734 72.483,301.297 71.955,300.671 71.309 C 300.045 70.663,299.457 70.134,299.365 70.134 C 299.273 70.134,299.709 70.663,300.336 71.309 M148.117 71.109 C 146.983 71.800,145.636 73.490,145.641 74.213 C 145.643 74.461,146.018 74.041,146.474 73.279 C 146.953 72.480,147.804 71.657,148.485 71.334 C 149.606 70.802,149.964 70.468,149.413 70.471 C 149.274 70.472,148.691 70.759,148.117 71.109 M249.161 70.805 C 249.275 70.990,249.564 71.141,249.803 71.141 C 250.042 71.141,250.654 71.527,251.163 71.998 C 251.672 72.470,252.155 72.789,252.236 72.708 C 252.461 72.483,249.910 70.470,249.400 70.470 C 249.155 70.470,249.047 70.621,249.161 70.805 M35.365 76.478 C 34.157 77.215,32.772 79.020,32.967 79.604 C 33.040 79.824,33.392 79.419,33.748 78.703 C 34.120 77.957,34.874 77.152,35.516 76.815 C 36.783 76.150,37.167 75.838,36.717 75.840 C 36.548 75.841,35.940 76.128,35.365 76.478 M270.638 76.174 C 270.752 76.359,271.041 76.510,271.280 76.510 C 271.519 76.510,272.130 76.896,272.639 77.368 C 273.148 77.839,273.631 78.159,273.712 78.077 C 273.937 77.852,271.387 75.839,270.877 75.839 C 270.631 75.839,270.524 75.990,270.638 76.174 M296.980 82.231 C 298.144 83.021,298.807 83.251,297.987 82.580 C 297.525 82.203,296.997 81.893,296.812 81.892 C 296.628 81.891,296.703 82.043,296.980 82.231 M298.993 83.381 C 298.993 83.609,300.689 84.440,301.678 84.696 C 302.139 84.816,301.771 84.533,300.860 84.068 C 299.105 83.171,298.993 83.130,298.993 83.381 M316.527 86.137 C 316.850 86.222,317.378 86.222,317.701 86.137 C 318.024 86.053,317.760 85.984,317.114 85.984 C 316.468 85.984,316.204 86.053,316.527 86.137 M273.862 104.770 C 273.687 105.230,272.901 106.157,272.114 106.830 C 270.459 108.246,270.630 108.478,272.358 107.160 C 273.523 106.271,274.712 104.466,274.363 104.117 C 274.262 104.016,274.037 104.310,273.862 104.770 M106.380 109.626 C 104.980 112.263,103.075 114.344,100.456 116.096 C 99.067 117.025,98.071 117.785,98.242 117.785 C 100.278 117.785,108.366 109.261,107.322 108.217 C 107.252 108.147,106.828 108.781,106.380 109.626 M339.262 108.389 C 338.884 108.633,339.052 108.715,339.933 108.715 C 340.579 108.715,341.334 108.568,341.611 108.389 C 341.988 108.145,341.820 108.064,340.940 108.064 C 340.294 108.064,339.539 108.210,339.262 108.389 M346.980 108.389 C 347.257 108.568,348.012 108.715,348.658 108.715 C 349.538 108.715,349.706 108.633,349.329 108.389 C 349.052 108.210,348.297 108.064,347.651 108.064 C 346.770 108.064,346.602 108.145,346.980 108.389 M335.115 109.903 C 332.474 111.242,330.162 112.879,328.641 114.487 C 327.323 115.881,324.831 119.450,324.835 119.938 C 324.837 120.138,325.419 119.396,326.129 118.289 C 328.653 114.349,333.016 110.889,337.580 109.206 C 338.341 108.926,338.521 108.766,338.087 108.755 C 337.718 108.745,336.381 109.262,335.115 109.903 M350.503 109.060 C 350.617 109.245,350.944 109.396,351.229 109.396 C 352.317 109.396,356.610 111.987,358.589 113.839 C 360.955 116.051,361.870 116.452,359.884 114.405 C 357.308 111.752,349.372 107.230,350.503 109.060 M252.385 110.139 C 252.211 110.599,251.424 111.526,250.638 112.199 C 249.062 113.548,249.107 113.855,250.706 112.673 C 251.806 111.859,253.218 109.818,252.900 109.500 C 252.792 109.391,252.560 109.679,252.385 110.139 M361.517 116.779 C 361.841 117.240,362.776 118.977,363.596 120.638 C 364.416 122.299,365.090 123.442,365.094 123.179 C 365.106 122.340,362.502 117.294,361.700 116.604 L 360.929 115.940 361.517 116.779 M324.013 121.649 C 323.256 123.460,323.415 123.933,324.192 122.183 C 324.552 121.371,324.776 120.638,324.691 120.552 C 324.606 120.467,324.301 120.961,324.013 121.649 M323.075 124.832 C 322.676 126.186,322.752 127.499,323.185 126.755 C 323.376 126.428,323.484 125.673,323.427 125.077 C 323.327 124.039,323.312 124.028,323.075 124.832 M365.101 125.296 C 365.101 125.942,365.252 126.564,365.436 126.678 C 365.636 126.801,365.772 126.408,365.772 125.711 C 365.772 125.065,365.621 124.443,365.436 124.329 C 365.237 124.206,365.101 124.598,365.101 125.296 M365.352 132.326 C 365.214 132.664,365.110 133.419,365.122 134.004 C 365.143 135.042,365.151 135.047,365.473 134.241 C 365.654 133.787,365.758 133.032,365.703 132.563 C 365.618 131.834,365.568 131.800,365.352 132.326 M322.829 133.054 C 322.829 133.607,322.975 134.287,323.154 134.564 C 323.404 134.950,323.480 134.833,323.480 134.060 C 323.480 133.507,323.333 132.827,323.154 132.550 C 322.905 132.164,322.829 132.281,322.829 133.054 M364.306 136.971 C 362.435 142.305,357.639 147.110,351.779 149.519 C 350.708 149.959,350.024 150.323,350.258 150.328 C 354.761 150.412,365.815 139.482,365.041 135.711 C 364.982 135.421,364.651 135.988,364.306 136.971 M323.514 135.781 C 323.480 136.320,324.505 138.694,324.691 138.508 C 324.776 138.423,324.552 137.689,324.192 136.878 C 323.832 136.066,323.527 135.573,323.514 135.781 M324.839 139.011 C 324.835 139.150,325.282 139.981,325.833 140.857 C 326.383 141.733,326.836 142.336,326.839 142.197 C 326.843 142.058,326.395 141.227,325.845 140.351 C 325.295 139.475,324.842 138.872,324.839 139.011 M327.444 143.121 C 327.638 143.490,328.371 144.320,329.071 144.966 C 330.229 146.033,329.242 144.764,327.246 142.617 C 327.161 142.525,327.249 142.752,327.444 143.121 M331.876 147.314 C 332.711 148.057,335.650 149.670,336.147 149.658 C 336.291 149.655,335.654 149.233,334.732 148.721 C 333.809 148.209,332.601 147.515,332.047 147.180 L 331.040 146.571 331.876 147.314 M347.483 150.687 C 347.015 150.899,347.219 150.929,348.154 150.786 C 348.893 150.674,349.560 150.527,349.636 150.459 C 349.925 150.205,348.127 150.395,347.483 150.687 M303.675 173.239 C 302.577 173.980,301.098 176.042,301.429 176.373 C 301.521 176.465,301.887 175.981,302.241 175.298 C 302.596 174.614,303.383 173.789,303.990 173.463 C 305.276 172.773,305.616 172.483,305.139 172.483 C 304.951 172.483,304.292 172.823,303.675 173.239 M329.698 172.819 C 329.812 173.003,330.101 173.154,330.340 173.154 C 330.579 173.154,331.191 173.540,331.700 174.012 C 332.209 174.484,332.691 174.803,332.773 174.722 C 332.998 174.497,330.447 172.483,329.937 172.483 C 329.692 172.483,329.584 172.634,329.698 172.819 M296.812 194.756 C 295.004 195.608,292.930 197.458,291.912 199.128 C 290.893 200.799,291.181 200.952,292.229 199.298 C 293.631 197.088,295.803 195.381,298.141 194.653 C 299.415 194.257,299.856 194.012,299.329 193.994 C 298.867 193.979,297.735 194.322,296.812 194.756 M336.757 194.640 C 339.914 195.641,343.624 199.378,343.624 201.556 C 343.624 201.970,343.775 202.403,343.960 202.517 C 345.105 203.224,343.465 199.376,341.785 197.414 C 340.460 195.866,337.065 193.952,335.691 193.979 C 334.978 193.993,335.252 194.162,336.757 194.640 M230.906 198.909 C 230.931 200.382,231.003 200.640,231.208 200.000 C 231.598 198.782,231.598 196.980,231.208 196.980 C 231.019 196.980,230.887 197.824,230.906 198.909 M167.153 198.154 C 167.203 199.943,167.713 201.095,167.747 199.497 C 167.762 198.758,167.629 197.928,167.450 197.651 C 167.202 197.268,167.131 197.388,167.153 198.154 M230.059 203.243 C 227.365 212.814,218.696 221.566,208.959 224.545 C 207.703 224.930,206.750 225.318,206.840 225.408 C 207.510 226.078,215.788 222.201,219.053 219.688 C 224.643 215.387,231.487 204.786,230.812 201.476 C 230.753 201.186,230.414 201.981,230.059 203.243 M290.846 201.454 C 290.444 202.474,290.540 203.333,290.972 202.590 C 291.164 202.261,291.268 201.733,291.204 201.416 C 291.098 200.889,291.067 200.892,290.846 201.454 M167.814 201.846 C 167.804 202.215,167.942 202.743,168.121 203.020 C 168.552 203.687,168.552 202.849,168.121 201.846 L 167.832 201.174 167.814 201.846 M169.799 207.176 C 169.799 207.536,170.797 209.396,170.990 209.396 C 171.083 209.396,170.909 208.905,170.604 208.305 C 169.981 207.081,169.799 206.825,169.799 207.176 M290.614 217.617 C 290.614 217.987,290.761 218.515,290.940 218.792 C 291.209 219.209,291.265 219.180,291.265 218.624 C 291.265 218.255,291.119 217.727,290.940 217.450 C 290.670 217.033,290.614 217.062,290.614 217.617 M343.832 217.953 C 343.083 221.159,340.206 224.353,337.154 225.367 C 336.191 225.688,335.585 226.011,335.809 226.086 C 338.191 226.883,344.820 220.132,344.206 217.534 C 344.110 217.126,343.995 217.254,343.832 217.953 M291.285 219.564 C 291.266 220.061,292.233 221.689,292.834 222.172 C 293.321 222.563,293.304 222.466,292.739 221.644 C 292.359 221.091,291.879 220.336,291.672 219.966 C 291.465 219.597,291.291 219.416,291.285 219.564 M204.111 225.735 C 204.434 225.819,204.962 225.819,205.285 225.735 C 205.608 225.650,205.344 225.581,204.698 225.581 C 204.052 225.581,203.788 225.650,204.111 225.735 M196.477 237.544 C 195.452 238.184,182.550 251.072,182.550 251.455 C 182.550 251.571,185.504 248.661,189.113 244.989 C 192.722 241.318,196.196 238.067,196.831 237.765 C 197.931 237.243,198.283 236.911,197.735 236.914 C 197.596 236.915,197.030 237.198,196.477 237.544 M201.342 237.470 C 202.024 237.762,205.177 240.637,208.859 244.322 C 212.347 247.814,215.290 250.671,215.399 250.671 C 215.803 250.671,202.820 237.857,201.946 237.394 C 201.448 237.129,200.844 236.925,200.604 236.940 C 200.364 236.955,200.696 237.194,201.342 237.470 M199.023 249.748 C 199.101 249.794,199.692 250.285,200.337 250.839 L 201.510 251.846 200.524 250.755 C 199.982 250.155,199.391 249.664,199.210 249.664 C 199.029 249.664,198.945 249.702,199.023 249.748 M197.462 251.426 L 196.477 252.517 197.567 251.531 C 198.167 250.989,198.658 250.498,198.658 250.441 C 198.658 250.181,198.381 250.410,197.462 251.426 M215.904 251.762 C 216.206 252.177,216.626 252.857,216.838 253.272 C 217.049 253.687,217.356 254.027,217.520 254.027 C 217.683 254.027,217.350 253.347,216.779 252.517 C 216.207 251.686,215.653 251.007,215.547 251.007 C 215.441 251.007,215.602 251.346,215.904 251.762 M181.052 253.888 C 180.739 254.366,180.541 254.814,180.612 254.885 C 180.682 254.955,181.005 254.565,181.329 254.017 C 182.052 252.792,181.836 252.692,181.052 253.888 M218.000 255.034 C 218.113 255.495,218.430 256.313,218.704 256.851 C 218.978 257.389,219.397 258.446,219.635 259.200 C 219.968 260.255,220.073 260.377,220.088 259.732 C 220.099 259.270,219.588 257.836,218.951 256.544 C 218.315 255.252,217.887 254.572,218.000 255.034 M178.747 258.949 C 178.624 259.072,178.533 259.487,178.545 259.871 C 178.564 260.514,178.592 260.506,178.888 259.767 C 179.216 258.945,179.148 258.548,178.747 258.949 M297.819 262.478 C 293.627 265.309,288.926 269.108,288.926 269.665 C 288.926 269.776,289.949 268.961,291.199 267.853 C 292.449 266.745,295.205 264.671,297.323 263.246 C 301.659 260.327,301.566 260.396,301.147 260.421 C 300.977 260.430,299.480 261.356,297.819 262.478 M178.109 261.409 C 177.710 262.763,177.785 264.076,178.219 263.332 C 178.409 263.005,178.518 262.250,178.460 261.654 C 178.360 260.616,178.345 260.606,178.109 261.409 M220.163 261.745 C 220.191 263.548,220.753 264.623,220.777 262.919 C 220.787 262.181,220.649 261.351,220.470 261.074 C 220.227 260.698,220.149 260.868,220.163 261.745 M337.251 262.972 C 341.149 265.568,344.550 268.446,348.273 272.298 C 350.000 274.084,351.483 275.474,351.570 275.387 C 352.378 274.580,336.512 261.074,334.756 261.074 C 334.561 261.074,335.684 261.928,337.251 262.972 M220.390 269.463 C 219.982 270.852,220.080 272.559,220.507 271.488 C 220.689 271.033,220.792 270.203,220.737 269.643 C 220.639 268.642,220.633 268.639,220.390 269.463 M177.909 269.966 C 177.925 271.569,178.454 273.002,178.466 271.477 C 178.472 270.831,178.347 270.000,178.188 269.631 C 177.943 269.061,177.901 269.112,177.909 269.966 M284.165 274.419 C 282.177 276.772,280.762 278.656,279.697 280.369 C 278.791 281.827,279.537 281.002,281.064 278.859 C 281.786 277.844,283.328 275.919,284.490 274.581 C 285.651 273.242,286.483 272.151,286.338 272.154 C 286.193 272.158,285.215 273.177,284.165 274.419 M219.693 273.490 C 218.694 278.292,212.493 285.925,207.554 288.432 C 206.169 289.135,205.098 289.773,205.174 289.850 C 205.251 289.926,206.345 289.486,207.605 288.870 C 212.772 286.349,220.738 276.120,220.056 272.884 C 219.990 272.567,219.828 272.836,219.693 273.490 M294.791 278.607 L 292.114 281.376 294.883 278.699 C 297.454 276.213,297.804 275.839,297.559 275.839 C 297.509 275.839,296.263 277.085,294.791 278.607 M351.949 276.389 C 352.135 276.737,352.631 277.321,353.052 277.688 L 353.818 278.356 353.068 277.275 C 352.193 276.016,351.422 275.405,351.949 276.389 M204.845 277.601 L 203.859 278.691 204.950 277.706 C 205.549 277.164,206.040 276.673,206.040 276.615 C 206.040 276.356,205.763 276.584,204.845 277.601 M353.871 278.891 C 354.026 279.150,354.703 280.193,355.375 281.208 C 356.047 282.223,356.922 283.582,357.319 284.228 C 358.138 285.558,358.305 285.353,357.567 283.925 C 356.789 282.420,354.407 278.926,353.979 278.662 C 353.712 278.497,353.678 278.570,353.871 278.891 M278.065 282.879 C 277.226 284.146,276.858 285.063,277.463 284.379 C 277.929 283.852,279.261 281.544,279.099 281.544 C 279.016 281.544,278.551 282.144,278.065 282.879 M185.067 284.228 C 186.163 285.336,187.135 286.242,187.227 286.242 C 187.320 286.242,186.499 285.336,185.403 284.228 C 184.307 283.121,183.335 282.215,183.242 282.215 C 183.150 282.215,183.971 283.121,185.067 284.228 M274.980 288.726 C 273.976 290.830,273.165 292.756,273.177 293.004 C 273.190 293.253,273.368 293.079,273.573 292.617 C 273.779 292.156,274.664 290.231,275.541 288.339 C 276.417 286.447,277.061 284.899,276.970 284.899 C 276.880 284.899,275.984 286.621,274.980 288.726 M360.785 291.359 C 361.174 292.328,361.751 293.838,362.067 294.714 C 362.382 295.591,362.724 296.224,362.826 296.123 C 363.065 295.884,360.658 289.597,360.327 289.597 C 360.189 289.597,360.395 290.390,360.785 291.359 M271.980 295.973 C 271.854 296.370,271.826 296.770,271.919 296.863 C 272.011 296.955,272.189 296.706,272.315 296.309 C 272.441 295.912,272.469 295.512,272.377 295.419 C 272.284 295.327,272.106 295.576,271.980 295.973 M363.507 299.345 C 363.879 300.825,364.251 301.968,364.335 301.884 C 364.544 301.675,363.387 296.998,363.079 296.807 C 362.943 296.723,363.135 297.865,363.507 299.345 M271.350 298.167 C 271.235 298.467,271.154 298.965,271.170 299.272 C 271.186 299.580,271.332 299.387,271.494 298.842 C 271.811 297.783,271.699 297.259,271.350 298.167 M270.699 300.464 C 270.573 300.793,270.479 301.314,270.491 301.621 C 270.505 301.992,270.622 301.908,270.836 301.371 C 271.014 300.925,271.108 300.405,271.044 300.214 C 270.981 300.022,270.825 300.135,270.699 300.464 M172.987 301.678 C 172.446 301.910,172.556 301.971,173.554 301.990 C 174.235 302.003,174.886 301.862,175.000 301.678 C 175.250 301.273,173.929 301.273,172.987 301.678 M223.490 301.678 C 223.490 301.862,224.132 302.003,224.916 301.990 C 226.021 301.972,226.191 301.901,225.671 301.678 C 224.735 301.276,223.490 301.276,223.490 301.678 M168.299 303.376 C 167.566 303.741,166.811 304.205,166.621 304.405 C 166.325 304.717,169.716 303.167,170.106 302.812 C 170.478 302.473,169.490 302.782,168.299 303.376 M230.605 303.872 C 231.842 304.507,233.824 305.934,235.010 307.044 C 237.353 309.235,238.429 309.802,236.559 307.859 C 234.558 305.780,229.735 302.638,228.643 302.701 C 228.485 302.710,229.368 303.237,230.605 303.872 M270.041 303.356 C 269.913 303.817,269.819 304.572,269.834 305.034 C 269.856 305.756,269.904 305.716,270.183 304.749 C 270.361 304.131,270.454 303.376,270.391 303.071 C 270.309 302.679,270.206 302.763,270.041 303.356 M364.487 303.356 C 364.503 304.740,365.031 306.171,365.044 304.866 C 365.049 304.312,364.924 303.557,364.765 303.188 C 364.503 302.578,364.478 302.593,364.487 303.356 M164.158 306.021 C 161.071 308.462,156.645 315.070,157.128 316.519 C 157.195 316.721,157.527 316.144,157.865 315.238 C 158.935 312.367,160.644 309.911,163.413 307.266 C 166.428 304.384,166.608 304.085,164.158 306.021 M269.379 307.676 C 268.993 309.414,269.056 311.615,269.480 311.191 C 269.677 310.994,269.788 309.888,269.732 308.691 C 269.644 306.831,269.597 306.695,269.379 307.676 M365.324 306.935 C 364.969 307.290,365.065 310.677,365.436 310.906 C 365.647 311.036,365.772 310.294,365.772 308.912 C 365.772 306.696,365.733 306.526,365.324 306.935 M238.051 310.151 C 238.354 310.566,238.774 311.246,238.985 311.661 C 239.197 312.076,239.514 312.416,239.690 312.416 C 239.866 312.416,239.789 312.076,239.519 311.661 C 239.250 311.246,238.818 310.566,238.561 310.151 C 238.304 309.736,237.960 309.396,237.798 309.396 C 237.635 309.396,237.749 309.736,238.051 310.151 M240.707 315.101 C 240.916 315.654,241.192 316.107,241.320 316.107 C 241.448 316.107,241.381 315.654,241.172 315.101 C 240.963 314.547,240.688 314.094,240.560 314.094 C 240.432 314.094,240.498 314.547,240.707 315.101 M156.628 317.897 C 156.228 318.871,156.307 320.337,156.736 319.908 C 156.934 319.710,157.047 319.038,156.988 318.415 C 156.904 317.537,156.822 317.420,156.628 317.897 M241.611 318.772 C 241.611 319.315,241.762 319.852,241.946 319.966 C 242.146 320.090,242.282 319.690,242.282 318.980 C 242.282 318.323,242.131 317.785,241.946 317.785 C 241.762 317.785,241.611 318.229,241.611 318.772 M365.124 323.051 C 365.141 324.450,365.229 324.811,365.436 324.329 C 365.839 323.392,365.839 321.558,365.436 321.309 C 365.226 321.179,365.110 321.831,365.124 323.051 M269.172 322.483 C 269.237 324.694,269.714 325.931,269.754 323.993 C 269.773 323.070,269.642 322.089,269.463 321.812 C 269.221 321.438,269.147 321.610,269.172 322.483 M269.856 326.678 C 269.850 327.232,269.976 327.987,270.134 328.356 C 270.528 329.273,270.528 327.741,270.134 326.510 C 269.872 325.692,269.865 325.696,269.856 326.678 M364.811 326.342 C 364.781 326.711,364.672 327.391,364.570 327.852 C 364.409 328.576,364.435 328.610,364.763 328.095 C 364.973 327.768,365.081 327.088,365.005 326.585 C 364.914 325.990,364.847 325.905,364.811 326.342 M270.499 329.698 C 270.488 330.067,270.626 330.596,270.805 330.872 C 271.236 331.540,271.236 330.701,270.805 329.698 L 270.517 329.027 270.499 329.698 M363.303 332.218 C 358.968 345.988,346.727 358.483,333.221 362.926 C 332.206 363.260,331.545 363.590,331.752 363.660 C 331.959 363.729,333.284 363.327,334.696 362.766 C 348.599 357.243,358.489 347.013,363.398 333.075 C 363.979 331.426,364.411 329.873,364.358 329.625 C 364.305 329.377,363.830 330.544,363.303 332.218 M271.165 332.111 C 271.152 332.515,271.292 332.940,271.477 333.054 C 271.873 333.299,271.873 332.971,271.477 332.047 C 271.198 331.400,271.187 331.402,271.165 332.111 M40.734 334.196 C 39.599 334.889,38.252 336.579,38.261 337.300 C 38.264 337.548,38.603 337.163,39.016 336.444 C 39.428 335.725,40.269 334.869,40.885 334.541 C 42.157 333.865,42.533 333.556,42.086 333.558 C 41.917 333.559,41.309 333.846,40.734 334.196 M249.161 333.893 C 249.275 334.077,249.564 334.228,249.803 334.228 C 250.042 334.228,250.654 334.614,251.163 335.086 C 251.672 335.557,252.155 335.877,252.236 335.796 C 252.461 335.571,249.910 333.557,249.400 333.557 C 249.155 333.557,249.047 333.708,249.161 333.893 M271.835 333.843 C 271.778 334.982,276.909 344.716,278.078 345.686 C 278.370 345.928,277.895 345.022,277.021 343.672 C 275.687 341.610,273.994 338.277,272.224 334.228 C 272.023 333.767,271.847 333.594,271.835 333.843 M290.590 344.044 C 291.981 345.525,292.282 345.792,292.282 345.540 C 292.282 345.486,291.565 344.769,290.688 343.946 L 289.094 342.450 290.590 344.044 M279.117 347.148 C 279.490 347.701,280.981 349.377,282.431 350.871 C 283.881 352.365,284.233 352.668,283.214 351.542 C 282.195 350.417,280.704 348.742,279.901 347.819 C 279.098 346.896,278.745 346.594,279.117 347.148 M290.792 358.041 C 291.294 358.542,296.418 361.410,296.804 361.405 C 296.993 361.403,296.015 360.779,294.631 360.019 C 293.247 359.259,291.876 358.431,291.584 358.178 C 290.988 357.661,290.292 357.540,290.792 358.041 M297.315 361.585 C 297.315 361.781,298.384 362.215,299.664 362.538 C 300.126 362.655,299.899 362.460,299.161 362.105 C 297.736 361.419,297.315 361.301,297.315 361.585 M252.385 362.488 C 252.211 362.948,251.424 363.875,250.638 364.548 C 248.983 365.965,249.153 366.196,250.881 364.878 C 252.047 363.989,253.236 362.184,252.886 361.835 C 252.786 361.734,252.560 362.028,252.385 362.488 M301.007 363.031 C 301.284 363.202,301.888 363.443,302.349 363.566 C 302.932 363.722,303.034 363.696,302.685 363.479 C 302.408 363.308,301.804 363.067,301.342 362.944 C 300.759 362.788,300.657 362.814,301.007 363.031 M304.195 364.094 C 304.564 364.253,305.092 364.382,305.369 364.382 C 305.686 364.382,305.624 364.276,305.201 364.094 C 304.832 363.935,304.304 363.806,304.027 363.806 C 303.710 363.806,303.772 363.912,304.195 364.094 M329.362 364.094 L 328.691 364.382 329.362 364.382 C 329.732 364.382,330.336 364.253,330.705 364.094 L 331.376 363.806 330.705 363.806 C 330.336 363.806,329.732 363.935,329.362 364.094 M326.678 364.765 C 325.823 365.133,326.705 365.133,327.852 364.765 C 328.527 364.549,328.560 364.494,328.020 364.487 C 327.651 364.481,327.047 364.606,326.678 364.765 M322.903 365.332 C 323.226 365.416,323.754 365.416,324.077 365.332 C 324.400 365.248,324.136 365.179,323.490 365.179 C 322.844 365.179,322.580 365.248,322.903 365.332 " stroke="none" fill="#59382f" fill-rule="evenodd"></path><path id="path4" d="M67.582 76.477 C 66.404 77.195,65.087 79.124,65.127 80.073 C 65.145 80.504,65.267 80.393,65.509 79.726 C 65.897 78.658,67.236 77.327,68.273 76.978 C 68.633 76.856,69.135 76.551,69.388 76.298 C 70.107 75.578,68.852 75.702,67.582 76.477 M77.517 76.174 C 77.240 76.353,76.560 76.520,76.007 76.544 C 75.427 76.569,75.251 76.653,75.591 76.742 C 76.373 76.946,75.998 77.511,75.064 77.538 L 74.329 77.559 75.084 77.863 C 75.980 78.223,75.897 77.055,75.982 90.436 C 76.024 97.014,76.202 101.890,76.440 103.020 C 76.654 104.035,76.795 105.164,76.753 105.529 C 76.712 105.893,76.867 106.214,77.097 106.242 C 77.986 106.348,77.995 106.414,77.181 106.879 L 76.342 107.359 77.349 107.394 C 78.225 107.425,78.269 107.468,77.685 107.727 C 77.278 107.907,80.382 107.997,85.570 107.955 C 98.204 107.853,97.373 109.015,97.243 91.634 L 97.148 78.813 95.573 77.326 L 93.999 75.839 86.009 75.844 C 81.431 75.847,77.805 75.988,77.517 76.174 M156.376 91.946 L 156.376 102.685 161.745 102.685 L 167.114 102.685 167.114 91.946 L 167.114 81.208 161.745 81.208 L 156.376 81.208 156.376 91.946 M236.913 91.946 L 236.913 102.685 239.597 102.685 L 242.282 102.685 242.282 91.946 L 242.282 81.208 239.597 81.208 L 236.913 81.208 236.913 91.946 M65.104 103.859 C 65.102 105.598,67.679 108.067,69.463 108.037 C 70.176 108.025,70.076 107.905,68.792 107.235 C 67.110 106.358,66.404 105.679,65.629 104.194 C 65.216 103.401,65.105 103.330,65.104 103.859 M350.168 120.347 C 350.352 120.510,351.031 121.095,351.677 121.647 L 352.850 122.651 352.012 121.697 C 351.551 121.173,350.872 120.588,350.503 120.398 C 350.134 120.208,349.983 120.185,350.168 120.347 M336.394 121.896 L 335.067 123.322 336.493 121.996 C 337.820 120.762,338.074 120.470,337.820 120.470 C 337.765 120.470,337.123 121.112,336.394 121.896 M336.409 137.248 C 337.130 137.987,337.796 138.591,337.888 138.591 C 337.980 138.591,337.466 137.987,336.745 137.248 C 336.024 136.510,335.359 135.906,335.266 135.906 C 335.174 135.906,335.689 136.510,336.409 137.248 M198.295 250.744 C 197.794 251.424,197.824 251.515,198.853 252.418 C 205.903 258.608,206.698 273.621,200.263 279.036 L 199.277 279.866 200.321 279.866 C 204.692 279.866,209.698 273.232,209.993 267.048 C 210.242 261.833,209.285 259.908,203.564 254.111 C 199.231 249.721,199.108 249.642,198.295 250.744 M287.400 270.889 L 286.074 272.315 287.500 270.989 C 288.284 270.259,288.926 269.618,288.926 269.563 C 288.926 269.309,288.634 269.563,287.400 270.889 M189.597 271.941 C 189.597 272.301,190.596 274.161,190.789 274.161 C 190.881 274.161,190.707 273.670,190.402 273.070 C 189.779 271.846,189.597 271.590,189.597 271.941 M192.282 276.279 C 192.282 276.337,192.773 276.828,193.372 277.370 L 194.463 278.356 193.477 277.265 C 192.559 276.249,192.282 276.020,192.282 276.279 M195.444 279.024 C 196.169 279.583,198.242 280.058,198.562 279.738 C 198.676 279.624,198.438 279.530,198.032 279.530 C 197.626 279.530,196.732 279.304,196.046 279.028 C 194.953 278.589,194.879 278.588,195.444 279.024 M174.497 312.431 C 174.129 312.680,174.265 312.711,175.000 312.547 C 176.234 312.271,176.502 312.079,175.643 312.086 C 175.289 312.089,174.773 312.244,174.497 312.431 M222.500 312.450 C 225.283 312.987,230.201 316.516,230.201 317.976 C 230.201 318.218,230.338 318.501,230.506 318.605 C 231.338 319.119,230.256 317.196,228.843 315.651 C 226.955 313.584,224.117 312.063,222.253 312.118 L 220.973 312.156 222.500 312.450 M170.608 314.828 C 169.770 315.601,168.927 316.545,168.735 316.925 C 168.544 317.306,168.861 317.058,169.441 316.374 C 170.020 315.690,170.980 314.748,171.573 314.280 C 172.166 313.813,172.534 313.429,172.392 313.427 C 172.249 313.424,171.447 314.055,170.608 314.828 M167.323 319.644 C 167.208 319.944,167.127 320.441,167.143 320.749 C 167.159 321.057,167.305 320.863,167.467 320.319 C 167.784 319.260,167.672 318.736,167.323 319.644 M231.109 320.487 C 231.214 321.308,231.355 322.043,231.422 322.120 C 231.696 322.434,231.510 319.929,231.226 319.481 C 231.027 319.166,230.986 319.522,231.109 320.487 M337.901 323.742 L 336.745 325.000 338.003 323.844 C 338.695 323.208,339.262 322.641,339.262 322.585 C 339.262 322.329,338.978 322.570,337.901 323.742 " stroke="none" fill="#af4732" fill-rule="evenodd"></path></g></svg>